<?xml version="1.0" encoding="UTF-8" standalone="no"?>
<!DOCTYPE svg PUBLIC "-//W3C//DTD SVG 1.1//EN"
 "http://www.w3.org/Graphics/SVG/1.1/DTD/svg11.dtd">
<!-- Generated by graphviz version 2.40.1 (20161225.0304)
 -->
<!-- Title: %3 Pages: 1 -->
<svg width="322pt" height="288pt"
 viewBox="0.00 0.00 322.00 288.00" xmlns="http://www.w3.org/2000/svg" xmlns:xlink="http://www.w3.org/1999/xlink">
<g id="graph0" class="graph" transform="scale(1 1) rotate(0) translate(4 284)">
<title>%3</title>
<polygon fill="#ffffff" stroke="transparent" points="-4,4 -4,-284 318,-284 318,4 -4,4"/>
<g id="clust1" class="cluster">
<title>cluster_0</title>
<polygon fill="none" stroke="#000000" points="8,-8 8,-244 78,-244 78,-8 8,-8"/>
<text text-anchor="middle" x="43" y="-228.8" font-family="Times,serif" font-size="14.00" fill="#000000">Input</text>
</g>
<g id="clust2" class="cluster">
<title>cluster_1</title>
<polygon fill="none" stroke="#000000" points="98,-8 98,-272 203,-272 203,-8 98,-8"/>
<text text-anchor="middle" x="150.5" y="-256.8" font-family="Times,serif" font-size="14.00" fill="#000000">N&#45;Dimensioned</text>
<text text-anchor="middle" x="150.5" y="-242.8" font-family="Times,serif" font-size="14.00" fill="#000000">Hidden Layer</text>
<text text-anchor="middle" x="150.5" y="-228.8" font-family="Times,serif" font-size="14.00" fill="#000000"> </text>
</g>
<g id="clust3" class="cluster">
<title>cluster_2</title>
<polygon fill="none" stroke="#000000" points="223,-35 223,-217 314,-217 314,-35 223,-35"/>
<text text-anchor="middle" x="268.5" y="-201.8" font-family="Times,serif" font-size="14.00" fill="#000000">Output Layer</text>
</g>
<!-- 0 -->
<g id="node1" class="node">
<title>0</title>
<ellipse fill="none" stroke="#000000" cx="43" cy="-196" rx="27" ry="18"/>
<text text-anchor="middle" x="43" y="-191.8" font-family="Times,serif" font-size="14.00" fill="#000000">0</text>
</g>
<!-- a -->
<g id="node5" class="node">
<title>a</title>
<ellipse fill="none" stroke="#000000" cx="150" cy="-196" rx="27" ry="18"/>
<text text-anchor="middle" x="150" y="-191.8" font-family="Times,serif" font-size="14.00" fill="#000000">a</text>
</g>
<!-- 0&#45;&gt;a -->
<g id="edge1" class="edge">
<title>0&#45;&gt;a</title>
<path fill="none" stroke="#000000" d="M70.0006,-196C82.8276,-196 98.3734,-196 112.3372,-196"/>
<polygon fill="#000000" stroke="#000000" points="112.6359,-199.5001 122.6358,-196 112.6358,-192.5001 112.6359,-199.5001"/>
</g>
<!-- b -->
<g id="node6" class="node">
<title>b</title>
<ellipse fill="none" stroke="#000000" cx="150" cy="-142" rx="27" ry="18"/>
<text text-anchor="middle" x="150" y="-137.8" font-family="Times,serif" font-size="14.00" fill="#000000">b</text>
</g>
<!-- 0&#45;&gt;b -->
<g id="edge5" class="edge">
<title>0&#45;&gt;b</title>
<path fill="none" stroke="#000000" d="M64.653,-185.0723C80.3164,-177.1674 101.706,-166.3727 119.1532,-157.5675"/>
<polygon fill="#000000" stroke="#000000" points="121.0286,-160.5416 128.3792,-152.9115 117.8747,-154.2923 121.0286,-160.5416"/>
</g>
<!-- c -->
<g id="node7" class="node">
<title>c</title>
<ellipse fill="none" stroke="#000000" cx="150" cy="-88" rx="27" ry="18"/>
<text text-anchor="middle" x="150" y="-83.8" font-family="Times,serif" font-size="14.00" fill="#000000">c</text>
</g>
<!-- 0&#45;&gt;c -->
<g id="edge9" class="edge">
<title>0&#45;&gt;c</title>
<path fill="none" stroke="#000000" d="M58.3305,-180.5262C76.5493,-162.1371 107.0906,-131.3104 127.8699,-110.3369"/>
<polygon fill="#000000" stroke="#000000" points="130.4912,-112.6641 135.0429,-103.0969 125.5184,-107.7374 130.4912,-112.6641"/>
</g>
<!-- d -->
<g id="node8" class="node">
<title>d</title>
<ellipse fill="none" stroke="#000000" cx="150" cy="-34" rx="27" ry="18"/>
<text text-anchor="middle" x="150" y="-29.8" font-family="Times,serif" font-size="14.00" fill="#000000">d</text>
</g>
<!-- 0&#45;&gt;d -->
<g id="edge13" class="edge">
<title>0&#45;&gt;d</title>
<path fill="none" stroke="#000000" d="M54.0479,-179.2733C72.7896,-150.898 110.9297,-93.1532 133.0631,-59.6428"/>
<polygon fill="#000000" stroke="#000000" points="136.2611,-61.1516 138.8519,-50.8784 130.4201,-57.2936 136.2611,-61.1516"/>
</g>
<!-- 1 -->
<g id="node2" class="node">
<title>1</title>
<ellipse fill="none" stroke="#000000" cx="43" cy="-142" rx="27" ry="18"/>
<text text-anchor="middle" x="43" y="-137.8" font-family="Times,serif" font-size="14.00" fill="#000000">1</text>
</g>
<!-- 1&#45;&gt;a -->
<g id="edge2" class="edge">
<title>1&#45;&gt;a</title>
<path fill="none" stroke="#000000" d="M64.653,-152.9277C80.3164,-160.8326 101.706,-171.6273 119.1532,-180.4325"/>
<polygon fill="#000000" stroke="#000000" points="117.8747,-183.7077 128.3792,-185.0885 121.0286,-177.4584 117.8747,-183.7077"/>
</g>
<!-- 1&#45;&gt;b -->
<g id="edge6" class="edge">
<title>1&#45;&gt;b</title>
<path fill="none" stroke="#000000" d="M70.0006,-142C82.8276,-142 98.3734,-142 112.3372,-142"/>
<polygon fill="#000000" stroke="#000000" points="112.6359,-145.5001 122.6358,-142 112.6358,-138.5001 112.6359,-145.5001"/>
</g>
<!-- 1&#45;&gt;c -->
<g id="edge10" class="edge">
<title>1&#45;&gt;c</title>
<path fill="none" stroke="#000000" d="M64.653,-131.0723C80.3164,-123.1674 101.706,-112.3727 119.1532,-103.5675"/>
<polygon fill="#000000" stroke="#000000" points="121.0286,-106.5416 128.3792,-98.9115 117.8747,-100.2923 121.0286,-106.5416"/>
</g>
<!-- 1&#45;&gt;d -->
<g id="edge14" class="edge">
<title>1&#45;&gt;d</title>
<path fill="none" stroke="#000000" d="M58.3305,-126.5262C76.5493,-108.1371 107.0906,-77.3104 127.8699,-56.3369"/>
<polygon fill="#000000" stroke="#000000" points="130.4912,-58.6641 135.0429,-49.0969 125.5184,-53.7374 130.4912,-58.6641"/>
</g>
<!-- 2 -->
<g id="node3" class="node">
<title>2</title>
<ellipse fill="none" stroke="#000000" cx="43" cy="-88" rx="27" ry="18"/>
<text text-anchor="middle" x="43" y="-83.8" font-family="Times,serif" font-size="14.00" fill="#000000">2</text>
</g>
<!-- 2&#45;&gt;a -->
<g id="edge3" class="edge">
<title>2&#45;&gt;a</title>
<path fill="none" stroke="#000000" d="M58.3305,-103.4738C76.5493,-121.8629 107.0906,-152.6896 127.8699,-173.6631"/>
<polygon fill="#000000" stroke="#000000" points="125.5184,-176.2626 135.0429,-180.9031 130.4912,-171.3359 125.5184,-176.2626"/>
</g>
<!-- 2&#45;&gt;b -->
<g id="edge7" class="edge">
<title>2&#45;&gt;b</title>
<path fill="none" stroke="#000000" d="M64.653,-98.9277C80.3164,-106.8326 101.706,-117.6273 119.1532,-126.4325"/>
<polygon fill="#000000" stroke="#000000" points="117.8747,-129.7077 128.3792,-131.0885 121.0286,-123.4584 117.8747,-129.7077"/>
</g>
<!-- 2&#45;&gt;c -->
<g id="edge11" class="edge">
<title>2&#45;&gt;c</title>
<path fill="none" stroke="#000000" d="M70.0006,-88C82.8276,-88 98.3734,-88 112.3372,-88"/>
<polygon fill="#000000" stroke="#000000" points="112.6359,-91.5001 122.6358,-88 112.6358,-84.5001 112.6359,-91.5001"/>
</g>
<!-- 2&#45;&gt;d -->
<g id="edge15" class="edge">
<title>2&#45;&gt;d</title>
<path fill="none" stroke="#000000" d="M64.653,-77.0723C80.3164,-69.1674 101.706,-58.3727 119.1532,-49.5675"/>
<polygon fill="#000000" stroke="#000000" points="121.0286,-52.5416 128.3792,-44.9115 117.8747,-46.2923 121.0286,-52.5416"/>
</g>
<!-- 3 -->
<g id="node4" class="node">
<title>3</title>
<ellipse fill="none" stroke="#000000" cx="43" cy="-34" rx="27" ry="18"/>
<text text-anchor="middle" x="43" y="-29.8" font-family="Times,serif" font-size="14.00" fill="#000000">3</text>
</g>
<!-- 3&#45;&gt;a -->
<g id="edge4" class="edge">
<title>3&#45;&gt;a</title>
<path fill="none" stroke="#000000" d="M54.0479,-50.7267C72.7896,-79.102 110.9297,-136.8468 133.0631,-170.3572"/>
<polygon fill="#000000" stroke="#000000" points="130.4201,-172.7064 138.8519,-179.1216 136.2611,-168.8484 130.4201,-172.7064"/>
</g>
<!-- 3&#45;&gt;b -->
<g id="edge8" class="edge">
<title>3&#45;&gt;b</title>
<path fill="none" stroke="#000000" d="M58.3305,-49.4738C76.5493,-67.8629 107.0906,-98.6896 127.8699,-119.6631"/>
<polygon fill="#000000" stroke="#000000" points="125.5184,-122.2626 135.0429,-126.9031 130.4912,-117.3359 125.5184,-122.2626"/>
</g>
<!-- 3&#45;&gt;c -->
<g id="edge12" class="edge">
<title>3&#45;&gt;c</title>
<path fill="none" stroke="#000000" d="M64.653,-44.9277C80.3164,-52.8326 101.706,-63.6273 119.1532,-72.4325"/>
<polygon fill="#000000" stroke="#000000" points="117.8747,-75.7077 128.3792,-77.0885 121.0286,-69.4584 117.8747,-75.7077"/>
</g>
<!-- 3&#45;&gt;d -->
<g id="edge16" class="edge">
<title>3&#45;&gt;d</title>
<path fill="none" stroke="#000000" d="M70.0006,-34C82.8276,-34 98.3734,-34 112.3372,-34"/>
<polygon fill="#000000" stroke="#000000" points="112.6359,-37.5001 122.6358,-34 112.6358,-30.5001 112.6359,-37.5001"/>
</g>
<!-- m -->
<g id="node9" class="node">
<title>m</title>
<ellipse fill="none" stroke="#000000" cx="268" cy="-61" rx="27" ry="18"/>
<text text-anchor="middle" x="268" y="-56.8" font-family="Times,serif" font-size="14.00" fill="#000000">m</text>
</g>
<!-- a&#45;&gt;m -->
<g id="edge17" class="edge">
<title>a&#45;&gt;m</title>
<path fill="none" stroke="#000000" d="M163.767,-180.2496C184.4616,-156.5736 223.7113,-111.6692 247.6965,-84.2286"/>
<polygon fill="#000000" stroke="#000000" points="250.3748,-86.4827 254.3206,-76.6501 245.1043,-81.876 250.3748,-86.4827"/>
</g>
<!-- n -->
<g id="node10" class="node">
<title>n</title>
<ellipse fill="none" stroke="#000000" cx="268" cy="-169" rx="27" ry="18"/>
<text text-anchor="middle" x="268" y="-164.8" font-family="Times,serif" font-size="14.00" fill="#000000">n</text>
</g>
<!-- a&#45;&gt;n -->
<g id="edge21" class="edge">
<title>a&#45;&gt;n</title>
<path fill="none" stroke="#000000" d="M175.6042,-190.1414C192.3042,-186.3202 214.3267,-181.2812 232.6824,-177.0811"/>
<polygon fill="#000000" stroke="#000000" points="233.4784,-180.4896 242.4457,-174.8472 231.917,-173.6659 233.4784,-180.4896"/>
</g>
<!-- o -->
<g id="node11" class="node">
<title>o</title>
<ellipse fill="none" stroke="#000000" cx="268" cy="-115" rx="27" ry="18"/>
<text text-anchor="middle" x="268" y="-110.8" font-family="Times,serif" font-size="14.00" fill="#000000">o</text>
</g>
<!-- a&#45;&gt;o -->
<g id="edge25" class="edge">
<title>a&#45;&gt;o</title>
<path fill="none" stroke="#000000" d="M168.9587,-182.9859C188.3983,-169.6418 218.8186,-148.7601 240.818,-133.6588"/>
<polygon fill="#000000" stroke="#000000" points="242.8246,-136.5267 249.0883,-127.9818 238.863,-130.7556 242.8246,-136.5267"/>
</g>
<!-- b&#45;&gt;m -->
<g id="edge18" class="edge">
<title>b&#45;&gt;m</title>
<path fill="none" stroke="#000000" d="M168.9587,-128.9859C188.3983,-115.6418 218.8186,-94.7601 240.818,-79.6588"/>
<polygon fill="#000000" stroke="#000000" points="242.8246,-82.5267 249.0883,-73.9818 238.863,-76.7556 242.8246,-82.5267"/>
</g>
<!-- b&#45;&gt;n -->
<g id="edge22" class="edge">
<title>b&#45;&gt;n</title>
<path fill="none" stroke="#000000" d="M175.6042,-147.8586C192.3042,-151.6798 214.3267,-156.7188 232.6824,-160.9189"/>
<polygon fill="#000000" stroke="#000000" points="231.917,-164.3341 242.4457,-163.1528 233.4784,-157.5104 231.917,-164.3341"/>
</g>
<!-- b&#45;&gt;o -->
<g id="edge26" class="edge">
<title>b&#45;&gt;o</title>
<path fill="none" stroke="#000000" d="M175.6042,-136.1414C192.3042,-132.3202 214.3267,-127.2812 232.6824,-123.0811"/>
<polygon fill="#000000" stroke="#000000" points="233.4784,-126.4896 242.4457,-120.8472 231.917,-119.6659 233.4784,-126.4896"/>
</g>
<!-- c&#45;&gt;m -->
<g id="edge19" class="edge">
<title>c&#45;&gt;m</title>
<path fill="none" stroke="#000000" d="M175.6042,-82.1414C192.3042,-78.3202 214.3267,-73.2812 232.6824,-69.0811"/>
<polygon fill="#000000" stroke="#000000" points="233.4784,-72.4896 242.4457,-66.8472 231.917,-65.6659 233.4784,-72.4896"/>
</g>
<!-- c&#45;&gt;n -->
<g id="edge23" class="edge">
<title>c&#45;&gt;n</title>
<path fill="none" stroke="#000000" d="M168.9587,-101.0141C188.3983,-114.3582 218.8186,-135.2399 240.818,-150.3412"/>
<polygon fill="#000000" stroke="#000000" points="238.863,-153.2444 249.0883,-156.0182 242.8246,-147.4733 238.863,-153.2444"/>
</g>
<!-- c&#45;&gt;o -->
<g id="edge27" class="edge">
<title>c&#45;&gt;o</title>
<path fill="none" stroke="#000000" d="M175.6042,-93.8586C192.3042,-97.6798 214.3267,-102.7188 232.6824,-106.9189"/>
<polygon fill="#000000" stroke="#000000" points="231.917,-110.3341 242.4457,-109.1528 233.4784,-103.5104 231.917,-110.3341"/>
</g>
<!-- d&#45;&gt;m -->
<g id="edge20" class="edge">
<title>d&#45;&gt;m</title>
<path fill="none" stroke="#000000" d="M175.6042,-39.8586C192.3042,-43.6798 214.3267,-48.7188 232.6824,-52.9189"/>
<polygon fill="#000000" stroke="#000000" points="231.917,-56.3341 242.4457,-55.1528 233.4784,-49.5104 231.917,-56.3341"/>
</g>
<!-- d&#45;&gt;n -->
<g id="edge24" class="edge">
<title>d&#45;&gt;n</title>
<path fill="none" stroke="#000000" d="M163.767,-49.7504C184.4616,-73.4264 223.7113,-118.3308 247.6965,-145.7714"/>
<polygon fill="#000000" stroke="#000000" points="245.1043,-148.124 254.3206,-153.3499 250.3748,-143.5173 245.1043,-148.124"/>
</g>
<!-- d&#45;&gt;o -->
<g id="edge28" class="edge">
<title>d&#45;&gt;o</title>
<path fill="none" stroke="#000000" d="M168.9587,-47.0141C188.3983,-60.3582 218.8186,-81.2399 240.818,-96.3412"/>
<polygon fill="#000000" stroke="#000000" points="238.863,-99.2444 249.0883,-102.0182 242.8246,-93.4733 238.863,-99.2444"/>
</g>
</g>
</svg>
